<?xml version="1.0" encoding="utf-8"?>
<!-- Generator: Adobe Illustrator 25.0.1, SVG Export Plug-In . SVG Version: 6.00 Build 0)  -->
<svg version="1.1" id="Layer_1" xmlns="http://www.w3.org/2000/svg" xmlns:xlink="http://www.w3.org/1999/xlink" x="0px" y="0px"
	 viewBox="0 0 595.28 841.89" style="enable-background:new 0 0 595.28 841.89;" xml:space="preserve">
<path d="M218.47,468.6c-5.05,3.06-10.4,7.46-10.57,12.91c-0.49,16.19,44.8,35.2,85.7,36.39c9.93,0.29,74.79,2.17,96.27-38.74
	c11.68-22.26,5.3-47.25,2.35-56.35c-16.68-51.39-72.95-54.83-93.92-113.88c-6.57-18.5-2.85-23.26-1.17-24.65
	c11.23-9.34,49.78,32.79,72.79,19.96c5.01-2.8,9.88-8.53,9.39-14.09c-1.45-16.44-49.89-31.83-91.57-25.83
	c-30.64,4.41-80.22,23.63-88.05,61.05c-6.4,30.58,17.83,60.16,38.74,85.7c33.99,41.5,69.44,56.29,64.57,71.61
	c-3.09,9.71-19.95,12.09-25.83,12.91C243.86,500.29,220.23,470.87,218.47,468.6z"/>
</svg>
